<svg width="16" height="16" viewBox="0 0 16 16" version="1.1" xmlns="http://www.w3.org/2000/svg">
  <style>
    .cross {
      fill: #ffffff;
    }
    .hex {
      fill: #000000;
    }

    @media (prefers-color-scheme: light) {
      .cross {
        fill: #ffffff;
      }
      .hex {
        fill: #000000;
      }
    }

    @media (prefers-color-scheme: dark) {
      .cross {
        fill: #000000;
      }
      .hex {
        fill: #ffffff;
      }
    }
  </style>
  <path
    fill-rule="evenodd"
    clip-rule="evenodd"
    d="M15.8714 8.48189C16.0429 8.18587 16.0429 7.82071 15.8714 7.52468L12.3502 1.44507C12.1794 1.15026 11.8645 0.96875 11.5239 0.96875H4.47614C4.13546 0.96875 3.82056 1.15026 3.64982 1.44507L0.128592 7.52468C-0.0428638 7.82071 -0.0428641 8.18587 0.128592 8.48189L3.64982 14.5615C3.82056 14.8563 4.13546 15.0378 4.47614 15.0378H11.5239C11.8645 15.0378 12.1794 14.8563 12.3502 14.5615L15.8714 8.48189Z"
    class="hex"/>
  <path d="M11.6875 7H4.3125C4.13991 7 4 7.13991 4 7.3125V8.6875C4 8.86009 4.13991 9 4.3125 9H11.6875C11.8601 9 12 8.86009 12 8.6875V7.3125C12 7.13991 11.8601 7 11.6875 7Z" class="cross"/>
  <path d="M8.6875 4H7.3125C7.13991 4 7 4.13991 7 4.3125V11.6875C7 11.8601 7.13991 12 7.3125 12H8.6875C8.86009 12 9 11.8601 9 11.6875V4.3125C9 4.13991 8.86009 4 8.6875 4Z" class="cross"/>
</svg>
